<svg width="32" height="31" viewBox="0 0 32 31" fill="none" xmlns="http://www.w3.org/2000/svg">
<g clip-path="url(#clip0_583_1215)">
<path d="M15.9642 1.25281C8.02565 1.25281 1.58972 7.68826 1.58972 15.6273C1.58972 23.5663 8.02565 30.0017 15.9642 30.0017C23.9027 30.0017 30.3387 23.5658 30.3387 15.6273C30.3387 7.68826 23.9027 1.25281 15.9642 1.25281ZM20.254 21.7019C19.2722 22.5414 17.8856 22.9606 16.0931 22.9606C14.2627 22.9606 12.8224 22.5471 11.774 21.7206C10.7252 20.8931 10.201 19.7571 10.201 18.3105H12.9738C13.0639 18.9459 13.2407 19.4202 13.5033 19.735C13.9853 20.3076 14.8099 20.5932 15.9786 20.5932C16.6786 20.5932 17.2464 20.5184 17.6829 20.3665C18.5118 20.0771 18.9258 19.54 18.9258 18.7542C18.9258 18.2957 18.7226 17.9401 18.3173 17.6881C17.911 17.4428 17.2675 17.2257 16.3868 17.0379L14.8818 16.7078C13.4022 16.38 12.3859 16.0254 11.833 15.6421C10.8953 15.0005 10.4271 13.9977 10.4271 12.6331C10.4271 11.3878 10.8857 10.3538 11.8018 9.5301C12.718 8.70597 14.0648 8.29438 15.841 8.29438C17.3245 8.29438 18.5885 8.68249 19.6369 9.45919C20.6833 10.2359 21.2324 11.3633 21.2842 12.841H18.4917C18.4404 12.0049 18.0667 11.4108 17.3705 11.0581C16.9062 10.8257 16.3288 10.7088 15.6393 10.7088C14.8717 10.7088 14.2599 10.8597 13.8023 11.1616C13.3447 11.4635 13.1152 11.8846 13.1152 12.4256C13.1152 12.9225 13.3408 13.2933 13.7927 13.5382C14.0821 13.7021 14.6978 13.8937 15.6398 14.1136L18.0796 14.6891C19.1481 14.9402 19.9502 15.277 20.484 15.6977C21.3124 16.3517 21.7269 17.2985 21.7269 18.5367C21.7269 19.8069 21.2367 20.8625 20.254 21.7019Z" fill="#989898"/>
</g>
<defs>
<clipPath id="clip0_583_1215">
<rect width="30.6655" height="30.6655" fill="white" transform="translate(0.63147 0.294189)"/>
</clipPath>
</defs>
</svg>
