<svg width="25" height="24" viewBox="0 0 25 24" fill="none" xmlns="http://www.w3.org/2000/svg">
<path d="M23.8134 11.6094L12.9642 0.76815C12.8861 0.68988 12.7933 0.627784 12.6912 0.585416C12.589 0.543048 12.4795 0.52124 12.3689 0.52124C12.2584 0.52124 12.1489 0.543048 12.0467 0.585416C11.9446 0.627784 11.8518 0.68988 11.7737 0.76815L0.924471 11.6094C0.608399 11.9255 0.429291 12.3548 0.429291 12.8026C0.429291 13.7324 1.18523 14.4883 2.11501 14.4883H3.25814V22.2242C3.25814 22.6904 3.63479 23.0671 4.101 23.0671H10.6832V17.167H13.6332V23.0671H20.6369C21.1031 23.0671 21.4797 22.6904 21.4797 22.2242V14.4883H22.6229C23.0706 14.4883 23.5 14.3119 23.816 13.9932C24.4719 13.3347 24.4719 12.2679 23.8134 11.6094Z" fill="#989898"/>
</svg>
