<svg width="24" height="29" viewBox="0 0 24 29" fill="none" xmlns="http://www.w3.org/2000/svg">
<path d="M11.9211 16.0941C14.075 16.0941 15.821 14.3481 15.821 12.1943C15.821 10.0405 14.075 8.29443 11.9211 8.29443C9.76732 8.29443 8.02129 10.0405 8.02129 12.1943C8.02129 14.3481 9.76732 16.0941 11.9211 16.0941Z" stroke="#989898" stroke-width="2.33325" stroke-linecap="round" stroke-linejoin="round"/>
<path d="M11.9211 1.79456C9.16297 1.79456 6.51778 2.89023 4.56748 4.84053C2.61717 6.79084 1.5215 9.43602 1.5215 12.1942C1.5215 14.6537 2.04408 16.263 3.47143 18.044L11.9211 27.7936L20.3708 18.044C21.7981 16.263 22.3207 14.6537 22.3207 12.1942C22.3207 9.43602 21.2251 6.79084 19.2748 4.84053C17.3244 2.89023 14.6793 1.79456 11.9211 1.79456V1.79456Z" stroke="#989898" stroke-width="2.33325" stroke-linecap="round" stroke-linejoin="round"/>
</svg>
